<?xml version="1.0" standalone="no"?>
<!DOCTYPE svg PUBLIC "-//W3C//DTD SVG 20010904//EN"
 "http://www.w3.org/TR/2001/REC-SVG-20010904/DTD/svg10.dtd">
<svg version="1.0" xmlns="http://www.w3.org/2000/svg"
 width="256.000000pt" height="233.000000pt" viewBox="0 0 256.000000 233.000000"
 preserveAspectRatio="xMidYMid meet">
<metadata>
Created by potrace 1.15, written by Peter Selinger 2001-2017
</metadata>
<g transform="translate(0.000000,233.000000) scale(0.100000,-0.100000)"
fill="#000000" stroke="none">
<path d="M1066 2270 c-75 -38 -103 -78 -117 -170 -4 -30 -11 -70 -15 -88 -5
-24 0 -48 20 -91 25 -56 33 -112 20 -145 -3 -9 -36 -38 -74 -66 -59 -44 -73
-50 -116 -50 -52 0 -181 -49 -236 -90 -44 -32 -68 -90 -68 -161 0 -40 -5 -68
-14 -78 -8 -9 -26 -39 -40 -67 -23 -46 -26 -64 -26 -153 l0 -102 -34 -29 c-44
-39 -60 -100 -51 -196 4 -40 13 -83 21 -96 7 -12 34 -63 59 -113 27 -55 45
-81 45 -67 0 12 -7 38 -14 57 -16 37 -12 42 17 21 18 -14 17 -36 -5 -125 -10
-37 -9 -45 4 -52 9 -5 19 -24 22 -42 7 -37 39 -73 55 -62 16 9 14 35 -2 35
-38 0 -65 91 -52 171 l7 39 24 -35 c13 -19 21 -43 18 -52 -5 -16 -4 -16 8 -3
7 8 28 16 46 16 25 2 32 -2 32 -17 0 -19 11 -25 24 -12 3 4 15 7 26 8 15 1 17
-1 9 -12 -6 -7 -15 -10 -20 -7 -5 3 -9 -2 -9 -11 0 -9 -5 -13 -10 -10 -6 3
-14 -4 -19 -17 -5 -13 -20 -34 -33 -48 -45 -46 -145 -264 -127 -276 6 -3 13 4
16 15 9 36 71 159 104 209 40 59 126 149 159 167 14 7 44 16 68 20 48 8 76 41
88 103 4 22 15 37 35 47 35 18 183 55 223 55 51 0 11 -27 -58 -39 -35 -6 -81
-18 -102 -26 -33 -13 -34 -14 -9 -10 81 14 155 21 155 16 0 -3 -26 -45 -58
-93 l-58 -87 -38 25 c-21 14 -40 23 -43 21 -2 -3 7 -23 21 -44 14 -20 26 -42
26 -47 0 -5 -46 -78 -101 -163 -56 -84 -100 -156 -97 -158 3 -3 41 -8 86 -12
l81 -6 56 119 c31 65 73 148 95 184 21 36 55 107 75 158 32 78 40 92 60 92 20
0 28 -14 67 -133 25 -72 65 -196 88 -274 48 -159 43 -153 154 -153 79 0 85 9
49 67 -56 86 -143 253 -143 272 0 10 18 46 40 79 22 34 36 62 33 62 -4 0 -27
-19 -52 -43 -54 -50 -36 -22 28 46 63 66 32 59 -40 -10 -32 -31 -61 -54 -63
-52 -17 18 -66 134 -62 145 4 10 29 14 98 15 83 2 88 2 43 9 -27 5 -76 9 -107
9 -69 1 -76 16 -13 25 51 8 115 1 195 -21 57 -15 108 -52 90 -63 -6 -4 15 -23
46 -44 133 -89 224 -213 279 -386 30 -91 39 -108 49 -91 6 8 -25 107 -59 194
-5 12 -2 17 8 17 20 0 59 49 50 63 -4 7 -12 2 -21 -11 -8 -12 -20 -22 -27 -22
-21 0 -45 65 -45 123 0 37 -5 59 -15 67 -19 16 -21 14 -32 -30 -5 -19 -13 -34
-19 -33 -5 1 -14 36 -20 77 -14 89 -32 146 -46 146 -6 0 -7 -8 -3 -17 9 -23
35 -143 35 -162 0 -39 -19 11 -29 74 -15 95 -25 128 -40 133 -10 3 -11 0 -1
-17 6 -12 15 -53 19 -90 l7 -69 -33 22 c-21 14 -31 26 -27 36 10 24 16 112 9
137 -10 40 -25 25 -25 -24 0 -53 -9 -93 -20 -93 -17 0 -29 49 -19 82 14 49 15
146 1 160 -9 9 -12 -3 -13 -52 -1 -36 -4 -76 -8 -90 l-7 -24 -12 30 c-10 24
-11 41 -2 76 13 50 10 110 -5 115 -7 2 -11 -19 -11 -53 -1 -61 -14 -84 -33
-61 -9 11 -9 27 -1 63 6 27 8 59 5 71 -7 29 4 75 16 67 5 -3 9 -16 9 -30 0
-14 7 -27 15 -30 9 -4 22 -18 30 -33 29 -52 15 12 -14 69 l-28 54 26 41 c14
22 31 45 38 50 7 6 23 29 36 53 23 41 30 45 119 76 52 18 111 36 132 40 27 5
42 15 54 37 15 26 22 29 67 29 28 0 68 7 90 14 22 8 54 12 72 9 38 -6 72 23
117 99 22 38 28 63 33 136 8 118 -2 144 -91 235 -66 67 -79 76 -122 83 -37 5
-56 15 -85 45 -49 50 -93 54 -160 17 l-36 -20 -38 26 c-52 36 -79 41 -123 24
-50 -19 -76 -61 -102 -169 -15 -61 -28 -92 -39 -96 -9 -2 -33 -12 -53 -20 -37
-16 -38 -16 -59 11 -11 15 -43 38 -70 51 -36 19 -50 32 -54 53 -4 15 -8 36
-10 46 -2 11 3 46 12 79 16 56 16 61 0 89 -9 16 -17 44 -18 61 -3 137 -140
218 -263 157z m181 -25 c42 -28 53 -72 53 -209 0 -73 -4 -127 -10 -131 -6 -3
-21 2 -35 13 -19 15 -38 19 -85 17 -71 -3 -110 -25 -44 -25 73 0 80 -30 17
-80 l-28 -21 38 5 c21 3 52 12 69 20 17 9 32 16 34 16 1 0 -2 -14 -7 -32 -14
-52 -2 -44 28 16 15 31 31 56 35 56 4 0 8 -22 8 -50 0 -35 4 -48 13 -45 17 6
120 -66 132 -93 12 -27 18 -27 74 -2 24 11 45 20 47 20 12 0 -1 -31 -43 -98
-45 -71 -48 -81 -47 -139 2 -58 0 -62 -24 -68 -28 -7 -210 3 -226 13 -5 3 6
13 24 22 l33 17 -54 6 c-29 4 -55 4 -58 2 -2 -3 5 -18 16 -33 24 -33 61 -41
193 -41 l96 -1 9 -32 c10 -31 84 -96 113 -97 10 -1 10 -5 0 -21 -8 -13 -20
-19 -31 -16 -9 2 -31 -3 -48 -11 -36 -18 -67 -12 -108 23 -45 37 -79 21 -46
-22 13 -17 14 -18 15 -1 0 15 3 16 20 7 11 -6 27 -21 35 -34 14 -21 14 -28 -1
-65 -12 -32 -14 -50 -7 -74 9 -30 9 -30 9 16 -1 43 3 52 29 73 53 43 115 24
101 -31 -4 -14 -26 -44 -49 -67 -41 -40 -37 -45 17 -23 17 8 17 6 2 -23 -9
-17 -16 -52 -16 -77 0 -61 -23 -115 -49 -115 -43 0 -71 18 -71 48 0 15 6 34
13 41 8 10 8 12 0 7 -7 -4 -16 7 -24 29 -7 19 -16 35 -20 35 -17 0 -18 -19 -4
-46 8 -16 15 -44 15 -61 0 -31 -2 -33 -32 -33 -18 1 -44 7 -58 15 -38 22 -122
19 -153 -5 -14 -11 -39 -20 -55 -20 -17 0 -39 -3 -49 -7 -13 -6 -8 -9 22 -13
39 -5 39 -5 -31 -21 -57 -12 -71 -12 -67 -2 4 10 -1 10 -27 2 -28 -10 -35 -9
-52 9 -11 11 -22 37 -24 57 -4 51 -14 76 -25 69 -15 -9 -74 33 -88 62 -18 40
-2 49 58 31 28 -8 51 -13 51 -12 0 2 -15 12 -34 23 -43 25 -67 69 -55 99 7 18
13 21 47 16 46 -6 107 19 124 50 11 21 11 21 -18 2 -37 -24 -107 -24 -134 0
-13 12 -20 31 -20 55 0 35 1 36 33 33 30 -3 31 -3 9 9 -31 16 -24 28 34 60 71
40 161 68 215 68 40 0 53 5 79 31 17 17 30 33 28 34 -2 1 -59 -1 -127 -6 -124
-8 -172 -18 -90 -20 92 -1 87 -13 -22 -53 -153 -57 -158 -58 -190 -39 -27 16
-32 16 -86 -2 -31 -11 -70 -30 -85 -44 -16 -13 -31 -21 -34 -18 -3 3 -8 33
-11 66 -3 33 -10 58 -14 55 -15 -9 -10 29 10 71 20 42 77 103 87 92 3 -3 30 8
60 24 43 25 64 30 101 28 29 -2 77 6 121 20 91 29 156 24 216 -15 37 -24 39
-25 21 -4 -38 42 -72 53 -154 47 -42 -2 -85 -8 -96 -12 l-20 -7 20 16 c129
104 124 98 118 141 -3 22 -12 58 -19 80 -10 30 -10 41 -1 47 8 5 7 8 -5 8 -10
0 -21 8 -26 18 -11 19 2 62 18 62 6 0 10 24 10 56 0 49 2 55 15 44 23 -19 29
-5 10 24 -17 26 -17 27 21 61 21 20 52 40 69 45 41 13 122 4 152 -15z m585
-290 c36 -30 61 -32 95 -5 38 30 97 27 120 -6 38 -55 52 -64 96 -64 47 0 64
-10 91 -53 10 -16 32 -35 51 -42 34 -15 56 -54 69 -126 7 -39 -11 -67 -36 -54
-7 4 -4 0 6 -9 10 -8 22 -17 27 -18 10 -4 -6 -77 -19 -90 -14 -14 -88 -22 -96
-10 -3 6 3 50 14 98 20 83 19 115 0 84 -6 -8 -10 -23 -10 -32 0 -10 -4 -18
-10 -18 -5 0 -7 -6 -4 -14 3 -8 0 -32 -6 -55 -10 -39 -13 -41 -48 -40 -65 2
-87 12 -85 40 2 13 3 51 4 84 0 33 4 77 9 98 7 32 6 38 -7 35 -13 -2 -16 -21
-17 -100 -1 -122 -10 -133 -95 -132 -96 2 -97 2 -92 146 2 68 8 131 13 142 8
14 7 17 -4 14 -9 -3 -15 -35 -21 -104 -16 -198 -16 -199 -126 -189 -42 4 -81
11 -87 16 -6 5 -14 6 -17 2 -4 -3 -7 35 -7 86 0 59 -4 90 -10 86 -6 -4 -10
-53 -10 -115 l0 -108 35 -31 c20 -17 41 -31 48 -32 7 0 50 -2 97 -3 68 -2 94
-7 130 -26 l45 -25 -50 -6 -50 -6 41 -1 c69 -3 86 -56 23 -72 -82 -22 -79 -22
-80 7 -1 28 -1 28 -10 -4 -11 -38 -39 -56 -90 -59 -49 -2 -208 81 -227 119 -7
15 -14 61 -15 104 -2 76 -1 80 40 143 23 36 48 89 56 118 7 29 16 49 20 46 4
-4 7 4 7 18 0 47 38 152 62 170 34 26 94 23 130 -7z m-1071 -643 c12 -32 -4
-181 -27 -250 -9 -26 -31 -68 -49 -93 -32 -45 -32 -46 -14 -70 9 -14 21 -37
24 -52 7 -25 5 -27 -22 -27 -64 0 -91 18 -119 81 -25 55 -70 107 -82 94 -2 -2
8 -19 24 -37 16 -18 37 -51 47 -74 l18 -40 -40 -72 c-46 -80 -48 -88 -25 -120
22 -31 28 -28 41 21 7 23 18 51 26 61 13 18 18 19 56 7 41 -12 42 -13 36 -44
-4 -18 -14 -47 -21 -66 -16 -39 -17 -51 -6 -51 5 0 19 34 31 76 20 69 24 75
44 68 50 -15 57 -37 32 -97 -17 -41 -19 -57 -6 -57 5 0 17 29 27 65 10 36 22
65 27 65 24 0 47 -23 47 -48 1 -23 2 -25 11 -9 34 59 37 -30 3 -100 -20 -40
-24 -42 -126 -46 -26 -2 -53 -8 -59 -14 -9 -9 -18 -8 -36 7 -17 13 -34 17 -57
13 -31 -5 -36 -2 -59 38 -13 24 -28 58 -33 74 -7 27 -8 28 -11 8 -3 -13 -8
-23 -13 -23 -11 0 -70 59 -70 70 0 16 21 22 35 10 18 -15 19 -6 4 22 -9 18 -8
19 10 13 34 -10 24 1 -24 30 -25 14 -52 37 -61 51 -32 49 2 146 67 190 19 12
29 29 32 54 2 19 7 44 12 55 l8 20 -16 -20 c-15 -19 -16 -15 -17 56 0 71 2 80
37 132 20 31 41 53 46 50 5 -3 6 -28 3 -57 -5 -38 -4 -45 4 -28 8 20 49 45 58
37 2 -2 -8 -23 -22 -48 -34 -58 -66 -153 -65 -191 1 -24 3 -20 11 18 21 110
128 286 165 271 8 -2 21 2 29 10 20 20 51 4 65 -33z m-9 -378 c17 -14 44 -28
59 -31 16 -3 29 -6 30 -7 0 0 3 -23 6 -50 2 -27 12 -56 21 -65 14 -14 14 -16
0 -19 -10 -2 -14 -10 -11 -22 6 -24 -24 -30 -58 -11 -23 13 -26 20 -21 53 4
35 2 40 -24 50 -19 7 -36 26 -51 56 -20 43 -21 47 -5 58 22 17 20 18 54 -12z"/>
<path d="M2144 1154 c-10 -54 2 -171 24 -234 31 -89 25 -197 -9 -163 -6 6 -11
55 -12 111 -1 65 -6 105 -14 114 -7 6 -13 8 -14 3 0 -6 -3 -57 -5 -115 -4
-102 -4 -106 31 -186 34 -81 44 -145 29 -201 -9 -31 -42 -30 -54 2 -5 14 -14
25 -20 25 -5 0 -13 18 -16 41 -11 64 -25 25 -18 -47 5 -51 3 -62 -10 -67 -23
-9 -39 37 -30 83 4 19 8 42 10 50 1 8 7 33 13 55 16 59 4 118 -45 226 -24 53
-44 104 -44 115 0 14 -3 15 -12 6 -13 -13 0 -63 46 -185 33 -87 34 -197 2
-197 -23 0 -39 46 -32 92 19 117 19 129 5 123 -15 -6 -16 -7 -25 -147 -7 -100
-3 -115 54 -278 4 -10 7 -6 9 10 2 14 -8 58 -22 99 -29 86 -31 98 -10 81 11
-9 18 -10 29 -1 12 10 13 1 9 -52 -7 -79 7 -111 44 -104 21 4 24 2 19 -17 -18
-60 -15 -78 4 -31 11 28 20 61 21 75 0 14 11 -15 25 -65 20 -76 23 -96 13
-128 -5 -22 -8 -42 -5 -45 25 -24 34 110 12 174 -20 58 -20 54 3 54 62 0 72
136 17 255 l-23 52 22 -5 c15 -2 28 4 40 20 15 19 16 20 11 3 -17 -48 -18
-111 -2 -148 19 -48 44 -46 68 3 23 45 22 34 -2 -68 -11 -46 -20 -99 -20 -117
0 -84 52 -114 90 -52 25 41 25 89 0 162 -22 64 -25 79 -9 53 13 -24 46 -23 59
1 5 11 11 44 11 73 l1 53 10 -49 c8 -35 7 -67 -2 -115 -31 -163 -23 -221 30
-221 30 0 45 17 60 69 6 22 8 19 15 -24 4 -27 11 -63 15 -80 7 -24 8 -18 9 34
1 49 -7 88 -36 169 l-37 106 11 100 c11 106 7 186 -9 186 -5 0 -6 6 -2 13 4 6
3 8 -2 4 -4 -4 -7 -43 -6 -87 2 -43 -2 -98 -9 -122 l-12 -43 -12 55 c-7 30
-24 87 -39 125 -14 39 -29 99 -32 135 -8 87 -16 105 -24 52 -8 -53 4 -144 30
-232 21 -70 26 -175 10 -200 -19 -30 -30 7 -35 120 -6 144 -7 151 -19 147 -5
-2 -9 -48 -8 -102 0 -86 -1 -93 -8 -50 -5 28 -18 77 -31 110 -12 34 -21 81
-21 109 1 54 -8 53 -24 -2 l-11 -37 -26 83 c-19 57 -27 105 -27 153 0 74 -15
93 -26 33z"/>
<path d="M179 978 c-15 -28 -6 -101 21 -163 34 -79 28 -195 -11 -195 -5 0 -14
10 -20 22 -9 16 -9 37 1 89 11 55 11 76 0 113 -7 25 -17 46 -21 46 -11 0 -11
-14 1 -68 8 -34 6 -53 -10 -102 -30 -89 -27 -111 32 -213 l53 -91 0 -106 c0
-139 -29 -222 -71 -206 -12 5 -15 16 -11 49 21 163 23 149 -22 242 -48 97 -72
107 -35 13 33 -85 40 -159 19 -192 -37 -56 -60 -15 -41 73 7 36 7 54 -1 62 -7
7 -13 0 -18 -27 -4 -21 -13 -51 -21 -66 -8 -15 -14 -35 -14 -45 1 -17 1 -17
14 0 16 21 27 22 20 3 -7 -19 13 -56 31 -56 20 0 52 45 60 86 3 20 9 34 12 31
2 -3 -2 -30 -11 -60 -20 -70 -20 -90 2 -117 67 -83 141 154 99 315 -7 28 -32
81 -55 119 -26 43 -42 82 -42 100 l1 31 14 -32 c23 -53 64 -41 86 24 l9 28 -5
-30 c-3 -16 -8 -64 -11 -105 -6 -65 -4 -78 13 -99 26 -31 57 -21 83 27 25 48
25 39 0 -33 -34 -98 -22 -179 28 -192 34 -8 71 31 78 83 l5 39 -14 -38 c-25
-65 -46 -77 -81 -48 -22 19 -20 83 4 131 28 55 25 114 -10 200 -16 40 -30 88
-30 106 0 26 -4 32 -15 28 -20 -8 -19 -40 5 -116 25 -81 26 -139 1 -169 -15
-19 -21 -21 -34 -11 -25 21 -29 61 -11 114 23 71 15 146 -26 238 -25 56 -34
89 -34 133 0 31 -2 57 -3 57 -1 0 -7 -10 -14 -22z"/>
</g>
</svg>
